<svg xmlns="http://www.w3.org/2000/svg" viewBox="0 0 512 512" role="img" aria-labelledby="title">
  <title id="title">Jaime Botello app icon</title>
  <rect width="512" height="512" rx="112" fill="#102a43"/>
  <circle cx="256" cy="256" r="172" fill="#f4f7fb"/>
  <circle cx="256" cy="256" r="148" fill="#102a43"/>
  <path fill="#f7d9aa" d="M152 331V181h56v150h-56Zm93 0V181h79c17 0 31 4 42 11 12 8 20 18 26 31 6 12 9 25 9 40 0 16-3 29-9 41-6 12-15 21-26 28-11 6-25 9-41 9h-80Zm56-48h18c8 0 14-2 19-5 4-4 7-9 7-16 0-8-3-14-8-18-5-4-12-6-21-6h-15v45Z"/>
</svg>
